<svg width="25" height="23" viewBox="0 0 25 23" fill="none" xmlns="http://www.w3.org/2000/svg">
<path fill-rule="evenodd" clip-rule="evenodd" d="M10.6005 6.42565C10.3943 6.6278 10.2784 6.90182 10.2784 7.18753C10.2784 7.47323 10.3943 7.74725 10.6005 7.9494L13.1258 10.4219H1.10116C0.809112 10.4219 0.529028 10.5355 0.322521 10.7377C0.116014 10.9399 0 11.2141 0 11.5C0 11.786 0.116014 12.0602 0.322521 12.2624C0.529028 12.4646 0.809112 12.5782 1.10116 12.5782H13.1258L10.6005 15.0507C10.4923 15.1494 10.4055 15.2684 10.3453 15.4006C10.2851 15.5329 10.2528 15.6756 10.2502 15.8204C10.2476 15.9652 10.2748 16.109 10.3301 16.2432C10.3855 16.3774 10.468 16.4994 10.5725 16.6018C10.6771 16.7041 10.8016 16.7849 10.9387 16.8391C11.0759 16.8933 11.2227 16.9199 11.3706 16.9174C11.5184 16.9148 11.6642 16.8831 11.7993 16.8242C11.9344 16.7653 12.056 16.6803 12.1568 16.5744L16.5614 12.2619C16.7676 12.0598 16.8834 11.7857 16.8834 11.5C16.8834 11.2143 16.7676 10.9403 16.5614 10.7382L12.1568 6.42565C11.9503 6.22376 11.6704 6.11035 11.3786 6.11035C11.0868 6.11035 10.8069 6.22376 10.6005 6.42565Z" fill="#024932"/>
<path opacity="0.5" d="M12.8467 23C15.9618 23 18.9494 21.7884 21.1521 19.6317C23.3549 17.4751 24.5924 14.55 24.5924 11.5C24.5924 8.45001 23.3549 5.52494 21.1521 3.36827C18.9494 1.2116 15.9618 0 12.8467 0V23Z" fill="#2DAE0D"/>
</svg>
