<svg width="62" height="40" viewBox="0 0 62 40" fill="none" xmlns="http://www.w3.org/2000/svg">
<g clip-path="url(#clip0_367_139)">
<path d="M33.8659 31.9126C33.594 31.7368 33.4412 31.4985 33.4412 31.2501C33.4412 31.0016 33.594 30.7633 33.8659 30.5876L48.8115 20.9376L9.72056 20.9376C9.33541 20.9376 8.96603 20.8388 8.69369 20.663C8.42135 20.4872 8.26835 20.2487 8.26835 20.0001C8.26835 19.7514 8.42135 19.513 8.69369 19.3371C8.96603 19.1613 9.33541 19.0626 9.72056 19.0626L48.8115 19.0626L33.8659 9.41255C33.6094 9.23483 33.4697 8.99978 33.4764 8.7569C33.483 8.51402 33.6354 8.28229 33.9015 8.11052C34.1676 7.93876 34.5265 7.84037 34.9027 7.83608C35.279 7.8318 35.6431 7.92195 35.9184 8.08755L53.3448 19.3376C53.6168 19.5133 53.7695 19.7516 53.7695 20.0001C53.7695 20.2485 53.6168 20.4868 53.3448 20.6626L35.9184 31.9126C35.6461 32.0881 35.277 32.1867 34.8921 32.1867C34.5073 32.1867 34.1382 32.0881 33.8659 31.9126Z" fill="#024932"/>
</g>
<defs>
<clipPath id="clip0_367_139">
<rect width="40" height="61.9608" fill="white" transform="matrix(0 1 -1 0 62 0)"/>
</clipPath>
</defs>
</svg>
