<svg width="57" height="48" viewBox="0 0 57 48" fill="none" xmlns="http://www.w3.org/2000/svg">
<path d="M51.1861 46.193C45.9897 38.6189 39.5678 36.2406 31.6671 35.6377V39.9913C31.6671 41.6091 31.0085 43.13 29.8115 44.2752C27.4175 46.5656 23.2344 46.5505 20.8722 44.2904L0.944688 25.4854C0.645491 25.2035 0.407886 24.8674 0.245704 24.4968C0.0835214 24.1262 0 23.7285 0 23.3267C0 22.925 0.0835214 22.5272 0.245704 22.1566C0.407886 21.786 0.645491 21.45 0.944688 21.1681L20.8563 2.37523C23.2439 0.0878478 27.4207 0.0848178 29.8147 2.37826C31.0085 3.52346 31.6671 5.04435 31.6671 6.66218V11.8247C46.2937 14.6513 57 26.9638 57 41.5031V44.5327C57.0018 45.1857 56.7828 45.8218 56.3757 46.3459C55.9687 46.87 55.3953 47.2541 54.7413 47.4409C54.0873 47.6277 53.3877 47.607 52.747 47.3821C52.1062 47.1572 51.5587 46.7401 51.1861 46.193ZM28.5733 29.4209C35.562 29.5905 43.2601 30.6145 49.9733 35.8467C48.7616 30.9991 46.0145 26.6278 42.1075 23.3306C38.2004 20.0335 33.3243 17.9715 28.1459 17.4265C26.5499 17.2568 25.3339 17.269 25.3339 17.269V6.67429L7.6769 23.3252L25.3339 39.9883V29.3875L28.5733 29.4209Z" fill="#096044"/>
</svg>
