<svg width="50" height="50" viewBox="0 0 50 50" fill="none" xmlns="http://www.w3.org/2000/svg">
<g clip-path="url(#clip0_383_685)">
<path d="M44.7916 8.3335H40.2777V11.1113H44.4444V41.6668H5.55548V11.1113H9.72215V8.3335H5.20826C4.88359 8.33892 4.56316 8.40825 4.26529 8.53753C3.96742 8.66681 3.69794 8.85351 3.47223 9.08696C3.24652 9.3204 3.06902 9.59602 2.94985 9.89808C2.83068 10.2001 2.77218 10.5227 2.7777 10.8474V41.9307C2.77218 42.2554 2.83068 42.578 2.94985 42.88C3.06902 43.1821 3.24652 43.4577 3.47223 43.6911C3.69794 43.9246 3.96742 44.1113 4.26529 44.2406C4.56316 44.3698 4.88359 44.4392 5.20826 44.4446H44.7916C45.1163 44.4392 45.4367 44.3698 45.7346 44.2406C46.0324 44.1113 46.3019 43.9246 46.5276 43.6911C46.7533 43.4577 46.9308 43.1821 47.05 42.88C47.1692 42.578 47.2277 42.2554 47.2221 41.9307V10.8474C47.2277 10.5227 47.1692 10.2001 47.05 9.89808C46.9308 9.59602 46.7533 9.3204 46.5276 9.08696C46.3019 8.85351 46.0324 8.66681 45.7346 8.53753C45.4367 8.40825 45.1163 8.33892 44.7916 8.3335Z" fill="#096044"/>
<path d="M11.1113 19.4443H13.8891V22.2221H11.1113V19.4443Z" fill="#096044"/>
<path d="M19.4443 19.4443H22.2221V22.2221H19.4443V19.4443Z" fill="#096044"/>
<path d="M27.7778 19.4443H30.5556V22.2221H27.7778V19.4443Z" fill="#096044"/>
<path d="M36.1113 19.4443H38.8891V22.2221H36.1113V19.4443Z" fill="#096044"/>
<path d="M11.1113 26.3887H13.8891V29.1664H11.1113V26.3887Z" fill="#096044"/>
<path d="M19.4443 26.3887H22.2221V29.1664H19.4443V26.3887Z" fill="#096044"/>
<path d="M27.7778 26.3887H30.5556V29.1664H27.7778V26.3887Z" fill="#096044"/>
<path d="M36.1113 26.3887H38.8891V29.1664H36.1113V26.3887Z" fill="#096044"/>
<path d="M11.1113 33.3335H13.8891V36.1113H11.1113V33.3335Z" fill="#096044"/>
<path d="M19.4443 33.3335H22.2221V36.1113H19.4443V33.3335Z" fill="#096044"/>
<path d="M27.7778 33.3335H30.5556V36.1113H27.7778V33.3335Z" fill="#096044"/>
<path d="M36.1113 33.3335H38.8891V36.1113H36.1113V33.3335Z" fill="#096044"/>
<path d="M13.8889 13.8889C14.2572 13.8889 14.6105 13.7426 14.871 13.4821C15.1314 13.2217 15.2778 12.8684 15.2778 12.5001V4.16672C15.2778 3.79836 15.1314 3.4451 14.871 3.18463C14.6105 2.92416 14.2572 2.77783 13.8889 2.77783C13.5205 2.77783 13.1673 2.92416 12.9068 3.18463C12.6463 3.4451 12.5 3.79836 12.5 4.16672V12.5001C12.5 12.8684 12.6463 13.2217 12.9068 13.4821C13.1673 13.7426 13.5205 13.8889 13.8889 13.8889Z" fill="#096044"/>
<path d="M36.1111 13.8889C36.4794 13.8889 36.8327 13.7426 37.0932 13.4821C37.3536 13.2217 37.4999 12.8684 37.4999 12.5001V4.16672C37.4999 3.79836 37.3536 3.4451 37.0932 3.18463C36.8327 2.92416 36.4794 2.77783 36.1111 2.77783C35.7427 2.77783 35.3894 2.92416 35.129 3.18463C34.8685 3.4451 34.7222 3.79836 34.7222 4.16672V12.5001C34.7222 12.8684 34.8685 13.2217 35.129 13.4821C35.3894 13.7426 35.7427 13.8889 36.1111 13.8889Z" fill="#096044"/>
<path d="M18.0557 8.3335H31.9446V11.1113H18.0557V8.3335Z" fill="#096044"/>
</g>
<defs>
<clipPath id="clip0_383_685">
<rect width="50" height="50" fill="white"/>
</clipPath>
</defs>
</svg>
