<svg width="12" height="12" viewBox="0 0 12 12" fill="none" xmlns="http://www.w3.org/2000/svg">
<path d="M0.171875 5.68262C0.171875 4.8623 0.315918 4.11279 0.604004 3.43408C0.896973 2.75049 1.29492 2.16211 1.79785 1.66895C2.30566 1.17578 2.89648 0.79248 3.57031 0.519043C4.24414 0.245605 4.9668 0.108887 5.73828 0.108887C6.25098 0.108887 6.74414 0.172363 7.21777 0.299316C7.69141 0.421387 8.13574 0.597168 8.55078 0.82666C8.96582 1.05615 9.3418 1.33691 9.67871 1.66895C10.0156 1.99609 10.3062 2.36719 10.5503 2.78223C10.7944 3.19727 10.9824 3.64893 11.1143 4.13721C11.2461 4.62061 11.312 5.13574 11.312 5.68262C11.312 6.22949 11.2461 6.74707 11.1143 7.23535C10.9824 7.71875 10.7944 8.16797 10.5503 8.58301C10.3062 8.99316 10.0156 9.36426 9.67871 9.69629C9.3418 10.0234 8.96582 10.3018 8.55078 10.5312C8.13574 10.7607 7.69141 10.9365 7.21777 11.0586C6.74414 11.1855 6.25098 11.249 5.73828 11.249C4.9668 11.249 4.24414 11.1123 3.57031 10.8389C2.89648 10.5654 2.30566 10.1846 1.79785 9.69629C1.29492 9.20312 0.896973 8.61719 0.604004 7.93848C0.315918 7.25488 0.171875 6.50293 0.171875 5.68262ZM0.765137 5.68262C0.765137 6.42969 0.894531 7.11084 1.15332 7.72607C1.41211 8.34131 1.76611 8.86865 2.21533 9.30811C2.66455 9.74756 3.19189 10.0894 3.79736 10.3335C4.40283 10.5776 5.0498 10.6997 5.73828 10.6997C6.42676 10.6997 7.07373 10.5776 7.6792 10.3335C8.28467 10.0894 8.81201 9.74756 9.26123 9.30811C9.71533 8.86865 10.0718 8.34131 10.3306 7.72607C10.5894 7.11084 10.7188 6.42969 10.7188 5.68262C10.7188 4.93555 10.5894 4.25439 10.3306 3.63916C10.0718 3.02393 9.71533 2.49658 9.26123 2.05713C8.81201 1.61279 8.28467 1.26855 7.6792 1.02441C7.07373 0.780273 6.42676 0.658203 5.73828 0.658203C5.0498 0.658203 4.40283 0.780273 3.79736 1.02441C3.19189 1.26855 2.66455 1.61279 2.21533 2.05713C1.76611 2.49658 1.41211 3.02393 1.15332 3.63916C0.894531 4.25439 0.765137 4.93555 0.765137 5.68262ZM8.08203 7.05225L8.01611 9.08838C7.84521 9.14697 7.66211 9.19824 7.4668 9.24219C7.27148 9.28613 7.07129 9.3252 6.86621 9.35938C6.66602 9.38867 6.46582 9.41309 6.26562 9.43262C6.07031 9.44727 5.88721 9.45459 5.71631 9.45459C5.16943 9.45459 4.67627 9.36914 4.23682 9.19824C3.79736 9.02734 3.42383 8.7832 3.11621 8.46582C2.80859 8.14355 2.57178 7.75537 2.40576 7.30127C2.23975 6.84229 2.15674 6.32715 2.15674 5.75586C2.15674 5.16992 2.24463 4.64014 2.42041 4.1665C2.59619 3.68799 2.84521 3.28271 3.16748 2.95068C3.48975 2.61377 3.87793 2.35498 4.33203 2.17432C4.79102 1.99365 5.30127 1.90332 5.86279 1.90332C6.18506 1.90332 6.52441 1.93262 6.88086 1.99121C7.2373 2.0498 7.5791 2.12793 7.90625 2.22559L7.96484 4.10791H7.51074C7.48633 3.75146 7.42285 3.46338 7.32031 3.24365C7.21777 3.02393 7.08838 2.85303 6.93213 2.73096C6.78076 2.60889 6.60742 2.52832 6.41211 2.48926C6.2168 2.4502 6.0166 2.43066 5.81152 2.43066C5.48438 2.43066 5.18408 2.47705 4.91064 2.56982C4.64209 2.65771 4.40771 2.82373 4.20752 3.06787C4.01221 3.30713 3.8584 3.6416 3.74609 4.07129C3.63867 4.50098 3.58496 5.05273 3.58496 5.72656C3.58496 6.39551 3.63867 6.93994 3.74609 7.35986C3.85352 7.7749 4 8.09961 4.18555 8.33398C4.37598 8.56348 4.60059 8.71973 4.85938 8.80273C5.11816 8.88574 5.40137 8.92725 5.70898 8.92725C5.95801 8.92725 6.18994 8.90283 6.40479 8.854C6.62451 8.80029 6.81738 8.70508 6.9834 8.56836C7.1543 8.42676 7.29346 8.23389 7.40088 7.98975C7.51318 7.74561 7.58887 7.43311 7.62793 7.05225H8.08203Z" fill="#024932"/>
</svg>
