<svg width="48" height="45" viewBox="0 0 48 45" fill="none" xmlns="http://www.w3.org/2000/svg">
<g clip-path="url(#clip0_383_477)">
<path fill-rule="evenodd" clip-rule="evenodd" d="M5.85271 0.941839C5.20607 0.356331 4.34001 0.0323488 3.44105 0.0396723C2.54209 0.0469958 1.68216 0.385039 1.04648 0.980993C0.41079 1.57695 0.050211 2.38313 0.0423992 3.22591C0.0345875 4.06868 0.380168 4.88062 1.00471 5.48684L19.1521 22.5001L1.00471 39.5133C0.677247 39.8098 0.416051 40.1645 0.236363 40.5566C0.0566746 40.9488 -0.0379068 41.3705 -0.0418627 41.7973C-0.0458187 42.2241 0.04093 42.6474 0.213322 43.0424C0.385713 43.4374 0.640295 43.7963 0.962213 44.0981C1.28413 44.3999 1.66694 44.6386 2.0883 44.8002C2.50966 44.9618 2.96113 45.0431 3.41637 45.0394C3.87161 45.0357 4.32151 44.9471 4.73981 44.7786C5.15811 44.6101 5.53644 44.3653 5.85271 44.0583L24.0001 27.0451L42.1476 44.0583C42.7942 44.6438 43.6603 44.9678 44.5592 44.9604C45.4582 44.9531 46.3181 44.6151 46.9538 44.0191C47.5895 43.4232 47.9501 42.617 47.9579 41.7742C47.9657 40.9314 47.6201 40.1195 46.9956 39.5133L28.8481 22.5001L46.9956 5.48684C47.6201 4.88062 47.9657 4.06868 47.9579 3.22591C47.9501 2.38313 47.5895 1.57695 46.9538 0.980993C46.3181 0.385039 45.4582 0.0469958 44.5592 0.0396723C43.6603 0.0323488 42.7942 0.356331 42.1476 0.941839L24.0001 17.9551L5.85271 0.941839Z" fill="#F81010"/>
</g>
<defs>
<clipPath id="clip0_383_477">
<rect width="48" height="45" fill="white"/>
</clipPath>
</defs>
</svg>
