<svg width="32" height="39" viewBox="0 0 32 39" fill="none" xmlns="http://www.w3.org/2000/svg">
<path d="M12.7583 38.9142C14.1325 39.2982 15.2145 38.3235 15.5876 37.3783L15.9918 36.3523C19.1102 28.4397 21.9565 21.2111 29.3795 17.4538C31.091 16.5864 32.2833 14.71 31.9413 12.6565L31.2947 8.77636C31.1136 7.68848 30.6276 6.67428 29.8932 5.85153C29.1588 5.02878 28.206 4.43124 27.1456 4.1283L15.1912 0.714531C13.8002 0.317127 12.342 0.211655 10.9082 0.404739C9.47451 0.597824 8.09618 1.08529 6.85984 1.83652C5.6235 2.58775 4.55586 3.58652 3.72397 4.7701C2.89209 5.95367 2.31392 7.29648 2.0258 8.71418L0.116829 18.1129C-0.0553169 18.9598 -0.0370216 19.8343 0.170387 20.6733C0.377796 21.5122 0.769131 22.2945 1.31607 22.9636C1.863 23.6327 2.55186 24.1718 3.33277 24.5419C4.11369 24.9121 4.96712 25.1039 5.83131 25.1037H9.2C8.66368 27.4402 8.41651 30.1046 8.66213 32.4566C8.94816 35.2082 9.99592 38.1447 12.7599 38.9142" fill="#096044"/>
</svg>
