<svg width="43" height="43" viewBox="0 0 43 43" fill="none" xmlns="http://www.w3.org/2000/svg">
<path d="M22.1457 7.1665C11.7898 7.1665 4.73784 17.6603 8.64367 27.2511L10.3153 31.3504C10.3883 31.5292 10.4016 31.7268 10.3531 31.9137C10.3047 32.1007 10.1972 32.2669 10.0465 32.3878L6.51159 35.224C6.36687 35.3401 6.26177 35.4983 6.2108 35.6767C6.15984 35.8551 6.16553 36.0449 6.22709 36.22C6.28864 36.395 6.40303 36.5466 6.55445 36.6538C6.70586 36.7611 6.88684 36.8186 7.07238 36.8186H21.0832C23.1379 36.8188 25.1725 36.4143 27.0708 35.6282C28.9691 34.8421 30.694 33.6897 32.1469 32.237C33.5999 30.7842 34.7524 29.0594 35.5388 27.1612C36.3251 25.263 36.7298 23.2284 36.7298 21.1738C36.7298 13.4373 30.459 7.1665 22.7226 7.1665H22.1457Z" fill="#096044"/>
</svg>
