<svg width="32" height="39" viewBox="0 0 32 39" fill="none" xmlns="http://www.w3.org/2000/svg">
<path d="M19.2417 38.9142C17.8675 39.2982 16.7855 38.3235 16.4124 37.3783L16.0082 36.3523C12.8898 28.4395 10.0435 21.2107 2.62054 17.4533C0.908995 16.5859 -0.283336 14.7095 0.0586622 12.6559L0.70535 8.77569C0.886437 7.68778 1.37241 6.67356 2.10683 5.85079C2.84124 5.02803 3.79398 4.43048 4.85441 4.12752L16.8088 0.713682C18.1998 0.31627 19.658 0.210796 21.0918 0.403884C22.5255 0.596971 23.9038 1.08445 25.1402 1.8357C26.3765 2.58695 27.4441 3.58574 28.276 4.76934C29.1079 5.95294 29.6861 7.29578 29.9742 8.71351L31.8832 18.1125C32.0553 18.9593 32.037 19.8339 31.8296 20.6729C31.6222 21.5118 31.2309 22.2942 30.6839 22.9633C30.137 23.6324 29.4481 24.1715 28.6672 24.5416C27.8863 24.9118 27.0329 25.1036 26.1687 25.1034H22.8C23.3363 27.4399 23.5835 30.1044 23.3379 32.4565C23.0518 35.2081 22.0041 38.1447 19.2401 38.9142" fill="#096044"/>
</svg>
