<svg width="32" height="39" viewBox="0 0 32 39" fill="none" xmlns="http://www.w3.org/2000/svg">
<path d="M19.2417 0.0857999C17.8675 -0.298171 16.7855 0.676525 16.4124 1.62168L16.0082 2.64768C12.8898 10.5603 10.0435 17.7889 2.62054 21.5462C0.908995 22.4136 -0.283336 24.29 0.0586622 26.3435L0.70535 30.2236C0.886437 31.3115 1.37241 32.3257 2.10683 33.1485C2.84124 33.9712 3.79398 34.5688 4.85441 34.8717L16.8088 38.2855C18.1998 38.6829 19.658 38.7883 21.0918 38.5953C22.5255 38.4022 23.9038 37.9147 25.1402 37.1635C26.3765 36.4122 27.4441 35.4135 28.276 34.2299C29.1079 33.0463 29.6861 31.7035 29.9742 30.2858L31.8832 20.8871C32.0553 20.0402 32.037 19.1657 31.8296 18.3267C31.6222 17.4878 31.2309 16.7055 30.6839 16.0364C30.137 15.3673 29.4481 14.8282 28.6672 14.4581C27.8863 14.0879 27.0329 13.8961 26.1687 13.8963H22.8C23.3363 11.5598 23.5835 8.89537 23.3379 6.54335C23.0518 3.79182 22.0041 0.855296 19.2401 0.0857999" fill="#096044"/>
</svg>
