<svg width="68" height="52" viewBox="0 0 68 52" fill="none" xmlns="http://www.w3.org/2000/svg">
<path d="M17.802 7.69873H27.0979C27.9892 7.69873 28.6622 8.37418 28.6811 9.13086V25.4099C28.6811 26.151 28.0011 26.8363 27.0979 26.8363H17.802C16.8948 26.8363 16.2188 26.1698 16.2188 25.4099V9.12513C16.2188 8.38401 16.8988 7.69873 17.802 7.69873ZM33.4819 7.69873H42.7779C43.6692 7.69873 44.3422 8.3742 44.3611 9.1309V25.4099C44.3611 26.151 43.6811 26.8363 42.7779 26.8363H33.4819C32.5748 26.8363 31.8987 26.1698 31.8987 25.4099V9.12513C31.8987 8.38401 32.5788 7.69873 33.4819 7.69873ZM49.1619 7.69873H58.4579C59.3492 7.69873 60.0222 8.37416 60.0411 9.13083V25.4099C60.0411 26.151 59.3611 26.8363 58.4579 26.8363H49.1619C48.2548 26.8363 47.5787 26.1698 47.5787 25.4099V9.12513C47.5787 8.38401 48.2588 7.69873 49.1619 7.69873Z" fill="#09855E" stroke="#024932"/>
<path d="M6.5856 0.479502H60.6144C61.4796 0.478026 62.3367 0.647361 63.1363 0.977796C63.936 1.30823 64.6626 1.79327 65.2744 2.40509C65.8862 3.01691 66.3713 3.74349 66.7017 4.54316C67.0321 5.34282 67.2015 6.19985 67.2 7.0651V38.6939M6.5856 0.479502C4.83935 0.480688 3.16497 1.17491 1.93019 2.40969C0.695406 3.64447 0.00118671 5.31885 0 7.0651M6.5856 0.479502L6.58594 0.979502C6.58588 0.979502 6.58583 0.979502 6.58577 0.979502M6.5856 0.479502V0.979502H6.58577M0 7.0651V38.6939M0 7.0651H0.5V7.06527M0 7.0651L0.5 7.06544C0.5 7.06538 0.5 7.06533 0.5 7.06527M0 38.6939C0.00118671 40.4401 0.695406 42.1145 1.93019 43.3493C3.16497 44.5841 4.83935 45.2783 6.5856 45.2795M0 38.6939L0.5 38.6936C0.5 38.6936 0.5 38.6937 0.5 38.6937M0 38.6939H0.5V38.6937M6.5856 45.2795H9.1056C9.3753 47.1457 10.3083 48.8522 11.7338 50.0864C13.1592 51.3207 14.9817 52 16.8672 52C18.7527 52 20.5752 51.3207 22.0006 50.0864C23.4261 48.8522 24.3591 47.1457 24.6288 45.2795H42.6608C42.9305 47.1457 43.8635 48.8522 45.289 50.0864C46.7144 51.3207 48.5369 52 50.4224 52C52.3079 52 54.1304 51.3207 55.5558 50.0864C56.9813 48.8522 57.9143 47.1457 58.184 45.2795H60.6144M6.5856 45.2795V44.7795H6.58594M6.5856 45.2795L6.58594 44.7795M60.6144 45.2795C62.3606 45.2783 64.035 44.5841 65.2698 43.3493C66.5046 42.1145 67.1988 40.4401 67.2 38.6939M60.6144 45.2795L60.6141 44.7795M60.6144 45.2795V44.7795H60.6141M67.2 38.6939H66.7V38.6936M67.2 38.6939L66.7 38.6936M66.7 38.6936C66.6989 40.3073 66.0574 41.8547 64.9163 42.9958C63.7752 44.1369 62.2278 44.7784 60.6141 44.7795M66.7 38.6936V7.0651V7.06425C66.7014 6.2648 66.5449 5.47295 66.2396 4.73411C65.9343 3.99525 65.4862 3.32393 64.9209 2.75864C64.3556 2.19335 63.6842 1.7452 62.9454 1.4399C62.2065 1.13459 61.4147 0.978138 60.6152 0.979501L60.6144 0.979502L6.58577 0.979502M60.6141 44.7795H58.184H57.7511L57.6891 45.208C57.4366 46.9552 56.5631 48.5529 55.2285 49.7084C53.894 50.864 52.1877 51.5 50.4224 51.5C48.6571 51.5 46.9508 50.864 45.6163 49.7084C44.2817 48.5529 43.4082 46.9552 43.1557 45.208L43.0937 44.7795H42.6608H24.6288H24.1959L24.1339 45.208C23.8814 46.9552 23.0079 48.5529 21.6733 49.7084C20.3388 50.864 18.6325 51.5 16.8672 51.5C15.1019 51.5 13.3956 50.864 12.0611 49.7084C10.7265 48.5529 9.85297 46.9552 9.60046 45.208L9.53853 44.7795H9.1056H6.58594M6.58577 0.979502C4.97207 0.980644 3.4248 1.62219 2.28374 2.76324C1.14268 3.9043 0.501142 5.45158 0.5 7.06527M0.5 7.06527V38.6937M0.5 38.6937C0.501142 40.3074 1.14268 41.8547 2.28374 42.9958C3.42484 44.1369 4.97218 44.7784 6.58594 44.7795M6.58454 4.4595L6.5856 4.4595L60.6131 4.4595H60.6144V4.9595C60.8913 4.95802 61.1658 5.01147 61.4219 5.11676C61.6781 5.22205 61.9108 5.37709 62.1066 5.57291C62.3024 5.76873 62.4575 6.00144 62.5627 6.25757C62.668 6.5137 62.7215 6.78817 62.72 7.0651L6.58454 4.4595ZM6.58454 4.4595C5.89422 4.46097 5.2326 4.73584 4.74447 5.22397C4.25634 5.7121 3.98147 6.37372 3.98 7.06404V7.0651V7.1995V7.6995H4.48H9.1168C10.02 7.6995 10.7 8.38478 10.7 9.1259V13.9374V14.5005L11.2592 14.4339C11.3365 14.4247 11.4144 14.4199 11.4923 14.4195H12.3648C12.6779 14.4195 12.94 14.6728 12.94 14.9947V21.8043C12.94 22.1174 12.6867 22.3795 12.3648 22.3795L11.4912 22.3795L11.4895 22.3795C11.4113 22.3798 11.3331 22.3756 11.2553 22.3669L10.7 22.305V22.8638V25.4331C10.7 26.1742 10.02 26.8595 9.1168 26.8595H4.48H3.98V27.3595V29.595V30.095H4.48H62.72H63.22V29.595V7.06628L6.58454 4.4595ZM3.98 38.7701V38.7796L8.96 38.3579H9.46V38.3571V34.2811C9.46 32.661 8.13854 31.3395 6.5184 31.3395H4.48H3.98V31.8395V38.7701ZM63.22 31.8395V31.3395H62.72H61.6C59.4137 31.3395 57.6376 33.1652 57.7405 35.3795L57.7406 35.381C57.8443 37.4814 59.6513 39.0595 61.712 39.0595H62.72H63.22V38.5595V31.8395ZM16.8 48.0195C17.8237 48.0195 18.8055 47.6128 19.5294 46.8889C20.2533 46.165 20.66 45.1832 20.66 44.1595C20.66 43.1358 20.2533 42.154 19.5294 41.4301C18.8055 40.7062 17.8237 40.2995 16.8 40.2995C15.7763 40.2995 14.7945 40.7062 14.0706 41.4301C13.3467 42.154 12.94 43.1358 12.94 44.1595C12.94 45.1832 13.3467 46.165 14.0706 46.8889C14.7945 47.6128 15.7763 48.0195 16.8 48.0195ZM50.4 48.0195C51.4237 48.0195 52.4055 47.6128 53.1294 46.8889C53.8533 46.165 54.26 45.1832 54.26 44.1595C54.26 43.1358 53.8533 42.154 53.1294 41.4301C52.4055 40.7062 51.4237 40.2995 50.4 40.2995C49.3763 40.2995 48.3945 40.7062 47.6706 41.4301C46.9467 42.154 46.54 43.1358 46.54 44.1595C46.54 45.1832 46.9467 46.165 47.6706 46.8889C48.3945 47.6128 49.3763 48.0195 50.4 48.0195Z" fill="#09855E" stroke="#024932"/>
</svg>
