<svg width="103" height="70" viewBox="0 0 103 70" fill="none" xmlns="http://www.w3.org/2000/svg">
<path fill-rule="evenodd" clip-rule="evenodd" d="M41.9636 61.2501H61.0358C74.4301 61.2501 81.1293 61.2501 85.9403 59.1064C88.0161 58.1817 89.804 56.9885 91.2019 55.5947C94.4163 52.3864 94.4164 47.9151 94.4164 38.9785C94.4164 30.0389 94.4163 25.5706 91.2019 22.3622C89.8041 20.9684 88.0162 19.7751 85.9403 18.8506C82.8503 17.471 78.9792 16.9781 73.0524 16.8031C70.2242 16.8031 67.7908 15.3739 67.2372 13.5218C66.8141 12.1652 65.7148 10.9494 64.1251 10.08C62.5354 9.21058 60.5527 8.74083 58.5123 8.75014H44.4871C40.2469 8.75014 36.5947 10.7481 35.7621 13.5218C35.2085 15.3739 32.7751 16.8031 29.9469 16.8031C24.0244 16.9781 20.1533 17.4739 17.059 18.8506C14.9845 19.7753 13.1982 20.9686 11.8018 22.3622C8.58301 25.5706 8.58301 30.0389 8.58301 38.9785C8.58301 47.9151 8.58301 52.3835 11.7975 55.5947C13.188 56.9831 14.9733 58.176 17.059 59.1064C21.87 61.2501 28.5693 61.2501 41.9636 61.2501ZM51.4997 27.0464C41.6245 27.0464 33.6163 32.3868 33.6163 38.9756C33.6163 45.5672 41.6245 50.9105 51.4997 50.9105C61.3748 50.9105 69.3831 45.5672 69.3831 38.9785C69.3831 32.3868 61.3748 27.0464 51.4997 27.0464ZM51.4997 31.8181C45.5772 31.8181 40.7705 35.0235 40.7705 38.9785C40.7705 42.9306 45.5772 46.136 51.4997 46.136C57.4222 46.136 62.2288 42.9306 62.2288 38.9785C62.2288 35.0235 57.4222 31.8181 51.4997 31.8181ZM71.7649 29.4322C71.7649 28.1139 73.3657 27.0464 75.3442 27.0464H80.1079C82.0821 27.0464 83.6872 28.1139 83.6872 29.4322C83.6781 30.0707 83.2965 30.6806 82.6262 31.1279C81.9559 31.5753 81.0517 31.8235 80.1122 31.8181H75.3442C74.8786 31.8211 74.4168 31.7619 73.985 31.6436C73.5531 31.5254 73.1598 31.3505 72.8274 31.129C72.4951 30.9074 72.2302 30.6435 72.0479 30.3524C71.8656 30.0613 71.7694 29.7486 71.7649 29.4322Z" fill="#09855E"/>
</svg>
