<svg width="25" height="23" viewBox="0 0 25 23" fill="none" xmlns="http://www.w3.org/2000/svg">
<path opacity="0.5" d="M11.7461 23C8.63087 23 5.64319 21.7884 3.44036 19.6317C1.23754 17.4751 0 14.55 0 11.5C0 8.45001 1.23754 5.52494 3.44036 3.36827C5.64319 1.2116 8.63087 0 11.7461 0V23Z" fill="#F81010"/>
<path fill-rule="evenodd" clip-rule="evenodd" d="M18.3099 6.42565C18.1037 6.6278 17.9878 6.90182 17.9878 7.18753C17.9878 7.47323 18.1037 7.74725 18.3099 7.9494L20.8353 10.4219H8.81018C8.51813 10.4219 8.23803 10.5355 8.03152 10.7377C7.825 10.9399 7.70898 11.2141 7.70898 11.5C7.70898 11.786 7.825 12.0602 8.03152 12.2624C8.23803 12.4646 8.51813 12.5782 8.81018 12.5782H20.8353L18.3099 15.0507C18.2017 15.1494 18.1149 15.2684 18.0547 15.4006C17.9945 15.5329 17.9622 15.6756 17.9596 15.8204C17.9569 15.9652 17.9841 16.109 18.0395 16.2432C18.0949 16.3774 18.1773 16.4994 18.2819 16.6018C18.3865 16.7041 18.511 16.7849 18.6482 16.8391C18.7853 16.8933 18.9321 16.9199 19.08 16.9174C19.2279 16.9148 19.3737 16.8831 19.5088 16.8242C19.6438 16.7653 19.7654 16.6803 19.8662 16.5744L24.271 12.2619C24.4773 12.0598 24.5931 11.7857 24.5931 11.5C24.5931 11.2143 24.4773 10.9403 24.271 10.7382L19.8662 6.42565C19.6598 6.22376 19.3799 6.11035 19.0881 6.11035C18.7962 6.11035 18.5163 6.22376 18.3099 6.42565Z" fill="#024932"/>
</svg>
