<svg width="30" height="36" viewBox="0 0 30 36" fill="none" xmlns="http://www.w3.org/2000/svg">
<path d="M0.5 13.2985C0.5 6.36156 6.92871 0.630859 15 0.630859C23.0713 0.630859 29.5 6.36156 29.5 13.2985C29.5 14.3526 29.3355 15.5835 29.0004 16.7467C28.6639 17.9145 28.1659 18.9784 27.5224 19.727L15 34.2956L2.47762 19.727C1.0315 18.0445 0.5 15.6717 0.5 13.2985ZM21.8123 13.2985C21.8123 9.90325 18.6987 7.25725 15 7.25725C11.3013 7.25725 8.18769 9.90325 8.18769 13.2985C8.18769 16.6938 11.3014 19.3397 15 19.3397C18.6987 19.3397 21.8123 16.6938 21.8123 13.2985Z" fill="#F81010" stroke="black"/>
</svg>
