<svg width="118" height="144" viewBox="0 0 118 144" fill="none" xmlns="http://www.w3.org/2000/svg">
<g filter="url(#filter0_d_349_6)">
<path d="M49.1282 135.61C33.9915 120.228 22.6868 105.941 15.2144 92.7503C7.74188 79.5596 4.00376 67.348 4 56.1154C4 39.2733 8.53727 25.8557 17.6118 15.8628C26.6863 5.86978 37.1918 0.873291 49.1282 0.873291C61.0684 0.873291 71.5757 5.86978 80.6503 15.8628C89.7248 25.8557 94.2602 39.2733 94.2564 56.1154L106.103 41.968L114 51.3996L88.6154 81.7154L63.2308 51.3996L71.1282 41.968L82.9744 56.1154C82.9744 43.8768 79.7063 33.8569 73.1702 26.0556C66.6342 18.2543 58.6202 14.3515 49.1282 14.347C39.6325 14.347 31.6166 18.2499 25.0805 26.0556C18.5444 33.8614 15.2783 43.8813 15.2821 56.1154C15.2821 64.0873 18.0556 73.2113 23.6026 83.4872C29.1496 93.7631 37.6581 105.187 49.1282 117.758C51.0085 115.736 52.7479 113.772 54.3462 111.863L59.141 106.136C58.6709 105.014 58.2949 103.808 58.0128 102.519C57.7308 101.23 57.5897 99.9094 57.5897 98.5575C57.5897 93.8417 58.953 89.8558 61.6795 86.5996C64.406 83.3435 67.7436 81.7154 71.6923 81.7154C75.641 81.7154 78.9786 83.3435 81.7051 86.5996C84.4316 89.8558 85.7949 93.8417 85.7949 98.5575C85.7949 103.273 84.4316 107.259 81.7051 110.515C78.9786 113.772 75.641 115.4 71.6923 115.4C70.9402 115.4 70.2576 115.343 69.6446 115.231C69.0316 115.119 68.3979 114.95 67.7436 114.726C65.0171 118.094 62.1251 121.519 59.0677 125C56.0103 128.48 52.6971 132.017 49.1282 135.61Z" fill="url(#paint0_linear_349_6)"/>
</g>
<defs>
<filter id="filter0_d_349_6" x="0" y="0.873291" width="118" height="142.737" filterUnits="userSpaceOnUse" color-interpolation-filters="sRGB">
<feFlood flood-opacity="0" result="BackgroundImageFix"/>
<feColorMatrix in="SourceAlpha" type="matrix" values="0 0 0 0 0 0 0 0 0 0 0 0 0 0 0 0 0 0 127 0" result="hardAlpha"/>
<feOffset dy="4"/>
<feGaussianBlur stdDeviation="2"/>
<feComposite in2="hardAlpha" operator="out"/>
<feColorMatrix type="matrix" values="0 0 0 0 0.0392157 0 0 0 0 0.152941 0 0 0 0 0.215686 0 0 0 0.5 0"/>
<feBlend mode="normal" in2="BackgroundImageFix" result="effect1_dropShadow_349_6"/>
<feBlend mode="normal" in="SourceGraphic" in2="effect1_dropShadow_349_6" result="shape"/>
</filter>
<linearGradient id="paint0_linear_349_6" x1="95.3" y1="67.1373" x2="-16.9189" y2="83.5743" gradientUnits="userSpaceOnUse">
<stop stop-color="#D3A84C"/>
<stop offset="0.495356" stop-color="#FFD87C"/>
<stop offset="1" stop-color="#E6BE69"/>
</linearGradient>
</defs>
</svg>
