<svg width="44" height="47" viewBox="0 0 44 47" fill="none" xmlns="http://www.w3.org/2000/svg">
<g filter="url(#filter0_d_358_163)">
<mask id="path-1-inside-1_358_163" fill="white">
<path d="M38.5 31.6666V33.3333H5.5V31.6666L9.16667 28.3333V18.3333C9.16667 13.1666 12.8883 8.61659 18.3333 7.14992V6.66659C18.3333 5.78253 18.7196 4.93468 19.4073 4.30956C20.0949 3.68444 21.0275 3.33325 22 3.33325C22.9725 3.33325 23.9051 3.68444 24.5927 4.30956C25.2804 4.93468 25.6667 5.78253 25.6667 6.66659V7.14992C31.1117 8.61659 34.8333 13.1666 34.8333 18.3333V28.3333L38.5 31.6666ZM25.6667 34.9999C25.6667 35.884 25.2804 36.7318 24.5927 37.3569C23.9051 37.9821 22.9725 38.3333 22 38.3333C21.0275 38.3333 20.0949 37.9821 19.4073 37.3569C18.7196 36.7318 18.3333 35.884 18.3333 34.9999"/>
</mask>
<path d="M38.5 31.6666V33.3333H5.5V31.6666L9.16667 28.3333V18.3333C9.16667 13.1666 12.8883 8.61659 18.3333 7.14992V6.66659C18.3333 5.78253 18.7196 4.93468 19.4073 4.30956C20.0949 3.68444 21.0275 3.33325 22 3.33325C22.9725 3.33325 23.9051 3.68444 24.5927 4.30956C25.2804 4.93468 25.6667 5.78253 25.6667 6.66659V7.14992C31.1117 8.61659 34.8333 13.1666 34.8333 18.3333V28.3333L38.5 31.6666ZM25.6667 34.9999C25.6667 35.884 25.2804 36.7318 24.5927 37.3569C23.9051 37.9821 22.9725 38.3333 22 38.3333C21.0275 38.3333 20.0949 37.9821 19.4073 37.3569C18.7196 36.7318 18.3333 35.884 18.3333 34.9999" fill="#F3D58E"/>
<path d="M38.5 31.6666H40.5V30.7818L39.8453 30.1867L38.5 31.6666ZM38.5 33.3333V35.3333H40.5V33.3333H38.5ZM5.5 33.3333H3.5V35.3333H5.5V33.3333ZM5.5 31.6666L4.15465 30.1867L3.5 30.7818V31.6666H5.5ZM9.16667 28.3333L10.512 29.8131L11.1667 29.218V28.3333H9.16667ZM18.3333 7.14992L18.8535 9.08109L20.3333 8.68248V7.14992H18.3333ZM22 3.33325V1.33325V3.33325ZM25.6667 7.14992H23.6667V8.68248L25.1465 9.08109L25.6667 7.14992ZM34.8333 28.3333H32.8333V29.218L33.488 29.8131L34.8333 28.3333ZM36.5 31.6666V33.3333H40.5V31.6666H36.5ZM38.5 31.3333H5.5V35.3333H38.5V31.3333ZM7.5 33.3333V31.6666H3.5V33.3333H7.5ZM6.84535 33.1465L10.512 29.8131L7.82132 26.8534L4.15465 30.1867L6.84535 33.1465ZM11.1667 28.3333V18.3333H7.16667V28.3333H11.1667ZM11.1667 18.3333C11.1667 14.1776 14.174 10.3416 18.8535 9.08109L17.8132 5.21875C11.6026 6.89162 7.16667 12.1556 7.16667 18.3333H11.1667ZM20.3333 7.14992V6.66659H16.3333V7.14992H20.3333ZM20.3333 6.66659C20.3333 6.37781 20.4578 6.05744 20.7526 5.78944L18.0619 2.82968C16.9815 3.81192 16.3333 5.18725 16.3333 6.66659H20.3333ZM20.7526 5.78944C21.0538 5.51568 21.4997 5.33325 22 5.33325V1.33325C20.5554 1.33325 19.1361 1.85321 18.0619 2.82968L20.7526 5.78944ZM22 5.33325C22.5003 5.33325 22.9462 5.51568 23.2474 5.78944L25.9381 2.82968C24.8639 1.85321 23.4446 1.33325 22 1.33325V5.33325ZM23.2474 5.78944C23.5422 6.05744 23.6667 6.37781 23.6667 6.66659H27.6667C27.6667 5.18725 27.0185 3.81192 25.9381 2.82968L23.2474 5.78944ZM23.6667 6.66659V7.14992H27.6667V6.66659H23.6667ZM25.1465 9.08109C29.826 10.3416 32.8333 14.1776 32.8333 18.3333H36.8333C36.8333 12.1556 32.3974 6.89162 26.1868 5.21875L25.1465 9.08109ZM32.8333 18.3333V28.3333H36.8333V18.3333H32.8333ZM33.488 29.8131L37.1547 33.1465L39.8453 30.1867L36.1787 26.8534L33.488 29.8131ZM23.6667 34.9999C23.6667 35.2887 23.5422 35.6091 23.2474 35.8771L25.9381 38.8368C27.0185 37.8546 27.6667 36.4793 27.6667 34.9999H23.6667ZM23.2474 35.8771C22.9462 36.1508 22.5003 36.3333 22 36.3333V40.3333C23.4446 40.3333 24.8639 39.8133 25.9381 38.8368L23.2474 35.8771ZM22 36.3333C21.4997 36.3333 21.0538 36.1508 20.7526 35.8771L18.0619 38.8368C19.1361 39.8133 20.5554 40.3333 22 40.3333V36.3333ZM20.7526 35.8771C20.4578 35.6091 20.3333 35.2887 20.3333 34.9999H16.3333C16.3333 36.4793 16.9815 37.8546 18.0619 38.8368L20.7526 35.8771Z" fill="#024932" mask="url(#path-1-inside-1_358_163)"/>
</g>
<defs>
<filter id="filter0_d_358_163" x="-4" y="0" width="52" height="48" filterUnits="userSpaceOnUse" color-interpolation-filters="sRGB">
<feFlood flood-opacity="0" result="BackgroundImageFix"/>
<feColorMatrix in="SourceAlpha" type="matrix" values="0 0 0 0 0 0 0 0 0 0 0 0 0 0 0 0 0 0 127 0" result="hardAlpha"/>
<feOffset dy="4"/>
<feGaussianBlur stdDeviation="2"/>
<feComposite in2="hardAlpha" operator="out"/>
<feColorMatrix type="matrix" values="0 0 0 0 0 0 0 0 0 0 0 0 0 0 0 0 0 0 0.25 0"/>
<feBlend mode="normal" in2="BackgroundImageFix" result="effect1_dropShadow_358_163"/>
<feBlend mode="normal" in="SourceGraphic" in2="effect1_dropShadow_358_163" result="shape"/>
</filter>
</defs>
</svg>
