<svg width="39" height="9" viewBox="0 0 39 9" fill="none" xmlns="http://www.w3.org/2000/svg">
<path d="M4.65531 8.01924C3.39531 8.01924 2.37531 7.67424 1.59531 6.98424C0.845313 6.26424 0.470313 5.33424 0.470313 4.19424C0.470313 3.05424 0.845313 2.13924 1.59531 1.44924C2.37531 0.729238 3.39531 0.369238 4.65531 0.369238C5.94531 0.369238 6.96531 0.714238 7.71531 1.40424C8.46531 2.09424 8.84031 3.00924 8.84031 4.14924C8.84031 5.28924 8.45031 6.21924 7.67031 6.93924C6.92031 7.65924 5.91531 8.01924 4.65531 8.01924ZM19.333 8.01924C18.073 8.01924 17.053 7.67424 16.273 6.98424C15.523 6.26424 15.148 5.33424 15.148 4.19424C15.148 3.05424 15.523 2.13924 16.273 1.44924C17.053 0.729238 18.073 0.369238 19.333 0.369238C20.623 0.369238 21.643 0.714238 22.393 1.40424C23.143 2.09424 23.518 3.00924 23.518 4.14924C23.518 5.28924 23.128 6.21924 22.348 6.93924C21.598 7.65924 20.593 8.01924 19.333 8.01924ZM34.0108 8.01924C32.7508 8.01924 31.7308 7.67424 30.9508 6.98424C30.2008 6.26424 29.8258 5.33424 29.8258 4.19424C29.8258 3.05424 30.2008 2.13924 30.9508 1.44924C31.7308 0.729238 32.7508 0.369238 34.0108 0.369238C35.3008 0.369238 36.3208 0.714238 37.0708 1.40424C37.8208 2.09424 38.1958 3.00924 38.1958 4.14924C38.1958 5.28924 37.8058 6.21924 37.0258 6.93924C36.2758 7.65924 35.2708 8.01924 34.0108 8.01924Z" fill="#063E3B"/>
</svg>
