<svg width="68" height="52" viewBox="0 0 68 52" fill="none" xmlns="http://www.w3.org/2000/svg">
<path d="M17.802 7.21924H27.0979C27.9892 7.21924 28.6622 7.89469 28.6811 8.65137V24.9304C28.6811 25.6716 28.0011 26.3568 27.0979 26.3568H17.802C16.8948 26.3568 16.2188 25.6903 16.2188 24.9304V8.64564C16.2188 7.90452 16.8988 7.21924 17.802 7.21924ZM33.4819 7.21924H42.7779C43.6692 7.21924 44.3422 7.89471 44.3611 8.65141V24.9304C44.3611 25.6716 43.6811 26.3568 42.7779 26.3568H33.4819C32.5748 26.3568 31.8987 25.6903 31.8987 24.9304V8.64564C31.8987 7.90452 32.5788 7.21924 33.4819 7.21924ZM49.1619 7.21924H58.4579C59.3492 7.21924 60.0222 7.89467 60.0411 8.65133V24.9304C60.0411 25.6716 59.3611 26.3568 58.4579 26.3568H49.1619C48.2548 26.3568 47.5787 25.6903 47.5787 24.9304V8.64564C47.5787 7.90452 48.2588 7.21924 49.1619 7.21924Z" fill="#E58D27" stroke="#503900"/>
<path d="M6.5856 9.55721e-06H60.6144C61.4796 -0.00146572 62.3367 0.167869 63.1363 0.498303C63.936 0.828738 64.6626 1.31377 65.2744 1.9256C65.8862 2.53742 66.3713 3.264 66.7017 4.06366C67.0321 4.86333 67.2015 5.72036 67.2 6.58561V38.2144M6.5856 9.55721e-06C4.83935 0.00119627 3.16497 0.695415 1.93019 1.9302C0.695406 3.16498 0.00118671 4.83936 0 6.58561M6.5856 9.55721e-06L6.58594 0.500009C6.58588 0.500009 6.58583 0.50001 6.58577 0.50001M6.5856 9.55721e-06V0.50001H6.58577M0 6.58561V38.2144M0 6.58561H0.5V6.58578M0 6.58561L0.5 6.58595C0.5 6.58589 0.5 6.58583 0.5 6.58578M0 38.2144C0.00118671 39.9607 0.695406 41.635 1.93019 42.8698C3.16497 44.1046 4.83935 44.7988 6.5856 44.8M0 38.2144L0.5 38.2141C0.5 38.2141 0.5 38.2142 0.5 38.2142M0 38.2144H0.5V38.2142M6.5856 44.8H9.1056C9.3753 46.6662 10.3083 48.3727 11.7338 49.6069C13.1592 50.8412 14.9817 51.5205 16.8672 51.5205C18.7527 51.5205 20.5752 50.8412 22.0006 49.6069C23.4261 48.3727 24.3591 46.6662 24.6288 44.8H42.6608C42.9305 46.6662 43.8635 48.3727 45.289 49.6069C46.7144 50.8412 48.5369 51.5205 50.4224 51.5205C52.3079 51.5205 54.1304 50.8412 55.5558 49.6069C56.9813 48.3727 57.9143 46.6662 58.184 44.8H60.6144M6.5856 44.8V44.3H6.58594M6.5856 44.8L6.58594 44.3M60.6144 44.8C62.3606 44.7988 64.035 44.1046 65.2698 42.8698C66.5046 41.635 67.1988 39.9607 67.2 38.2144M60.6144 44.8L60.6141 44.3M60.6144 44.8V44.3H60.6141M67.2 38.2144H66.7V38.2141M67.2 38.2144L66.7 38.2141M66.7 38.2141C66.6989 39.8278 66.0574 41.3752 64.9163 42.5163C63.7752 43.6574 62.2278 44.2989 60.6141 44.3M66.7 38.2141V6.58561V6.58475C66.7014 5.78531 66.5449 4.99346 66.2396 4.25461C65.9343 3.51576 65.4861 2.84444 64.9209 2.27915C64.3556 1.71386 63.6842 1.26571 62.9454 0.960406C62.2065 0.655102 61.4147 0.498646 60.6152 0.500009L60.6144 0.50001L6.58577 0.50001M60.6141 44.3H58.184H57.7511L57.6891 44.7285C57.4366 46.4757 56.5631 48.0734 55.2285 49.2289C53.894 50.3845 52.1877 51.0205 50.4224 51.0205C48.6571 51.0205 46.9508 50.3845 45.6163 49.2289C44.2817 48.0734 43.4082 46.4757 43.1557 44.7285L43.0937 44.3H42.6608H24.6288H24.1959L24.1339 44.7285C23.8814 46.4757 23.0079 48.0734 21.6733 49.2289C20.3388 50.3845 18.6325 51.0205 16.8672 51.0205C15.1019 51.0205 13.3956 50.3845 12.0611 49.2289C10.7265 48.0734 9.85297 46.4757 9.60046 44.7285L9.53853 44.3H9.1056H6.58594M6.58577 0.50001C4.97207 0.501152 3.4248 1.14269 2.28374 2.28375C1.14268 3.42481 0.501142 4.97208 0.5 6.58578M0.5 6.58578V38.2142M0.5 38.2142C0.501142 39.8279 1.14268 41.3752 2.28374 42.5163C3.42484 43.6574 4.97218 44.2989 6.58594 44.3M6.58454 3.98001L6.5856 3.98001L60.6131 3.98001H60.6144V4.48001C60.8913 4.47852 61.1658 4.53197 61.4219 4.63726C61.6781 4.74255 61.9108 4.8976 62.1066 5.09342C62.3024 5.28923 62.4575 5.52194 62.5627 5.77808C62.668 6.03421 62.7215 6.30868 62.72 6.58561L6.58454 3.98001ZM6.58454 3.98001C5.89422 3.98147 5.2326 4.25635 4.74447 4.74448C4.25634 5.23261 3.98147 5.89423 3.98 6.58455V6.58561V6.72001V7.22001H4.48H9.1168C10.02 7.22001 10.7 7.90529 10.7 8.64641V13.4579V14.0211L11.2592 13.9544C11.3365 13.9452 11.4144 13.9404 11.4923 13.94H12.3648C12.6779 13.94 12.94 14.1933 12.94 14.5152V21.3248C12.94 21.6379 12.6867 21.9 12.3648 21.9L11.4912 21.9L11.4895 21.9C11.4113 21.9003 11.3331 21.8961 11.2553 21.8874L10.7 21.8255V22.3843V24.9536C10.7 25.6947 10.02 26.38 9.1168 26.38H4.48H3.98V26.88V29.1155V29.6155H4.48H62.72H63.22V29.1155V6.58678L6.58454 3.98001ZM3.98 38.2906V38.3001L8.96 37.8784H9.46V37.8776V33.8016C9.46 32.1815 8.13854 30.86 6.5184 30.86H4.48H3.98V31.36V38.2906ZM63.22 31.36V30.86H62.72H61.6C59.4137 30.86 57.6376 32.6857 57.7405 34.9L57.7406 34.9015C57.8443 37.0019 59.6513 38.58 61.712 38.58H62.72H63.22V38.08V31.36ZM16.8 47.54C17.8237 47.54 18.8055 47.1333 19.5294 46.4094C20.2533 45.6855 20.66 44.7037 20.66 43.68C20.66 42.6563 20.2533 41.6745 19.5294 40.9506C18.8055 40.2267 17.8237 39.82 16.8 39.82C15.7763 39.82 14.7945 40.2267 14.0706 40.9506C13.3467 41.6745 12.94 42.6563 12.94 43.68C12.94 44.7037 13.3467 45.6855 14.0706 46.4094C14.7945 47.1333 15.7763 47.54 16.8 47.54ZM50.4 47.54C51.4237 47.54 52.4055 47.1333 53.1294 46.4094C53.8533 45.6855 54.26 44.7037 54.26 43.68C54.26 42.6563 53.8533 41.6745 53.1294 40.9506C52.4055 40.2267 51.4237 39.82 50.4 39.82C49.3763 39.82 48.3945 40.2267 47.6706 40.9506C46.9467 41.6745 46.54 42.6563 46.54 43.68C46.54 44.7037 46.9467 45.6855 47.6706 46.4094C48.3945 47.1333 49.3763 47.54 50.4 47.54Z" fill="#E58D27" stroke="#503900"/>
</svg>
