<svg width="50" height="50" viewBox="0 0 50 50" fill="none" xmlns="http://www.w3.org/2000/svg">
<g clip-path="url(#clip0_370_154)">
<path d="M25 38H25.5V37.5V34.375V33.875H25H21.875H21.375V34.375V37.5V38H21.875H25ZM25.5 9.375V8.875H25H21.875H21.375V9.375V31.25V31.75H21.875H25H25.5V31.25V9.375ZM23.184 50.3577L23.4364 50.5062L23.6894 50.3586C25.6531 49.2132 27.5919 47.9861 29.5058 46.6774C31.4245 45.3655 33.2613 43.9633 35.0163 42.4707C36.7762 40.974 38.4051 39.3698 39.9027 37.6584C41.4061 35.9401 42.7119 34.0972 43.8195 32.1301C44.9297 30.1582 45.7993 28.0626 46.4283 25.8444C47.0604 23.6155 47.375 21.25 47.375 18.75V6.25V5.75H46.875C45.5361 5.75 44.2387 5.70161 42.9827 5.60499C41.735 5.50902 40.5206 5.33316 39.3391 5.0777C38.163 4.82342 37.002 4.46566 35.8558 4.00398C34.7166 3.54517 33.5736 2.95045 32.4266 2.21797C31.7245 1.75018 31.012 1.34775 30.289 1.01148C29.5718 0.677892 28.8532 0.393712 28.1333 0.15933C27.4033 -0.0783336 26.6488 -0.247771 25.8703 -0.349316C25.0982 -0.450028 24.2871 -0.5 23.4375 -0.500024L23.4326 -0.499976C21.7314 -0.483298 20.1613 -0.258036 18.7258 0.181048C17.2928 0.619374 15.8679 1.29962 14.4513 2.21613C13.3033 2.94946 12.1593 3.54479 11.0192 4.00398C9.873 4.46566 8.71197 4.82342 7.53594 5.0777C6.35442 5.33316 5.13996 5.50902 3.89232 5.60499C2.63629 5.70161 1.33888 5.75 0 5.75H-0.5V6.25L-0.500011 18.75L-0.499989 18.7533C-0.483447 21.2511 -0.169075 23.6144 0.44577 25.8411C1.05892 28.0617 1.92935 30.1593 3.05709 32.1328C4.18052 34.0988 5.49389 35.9408 6.99676 37.6584C8.49377 39.3692 10.122 40.9809 11.8811 42.4934C13.6373 44.0034 15.4756 45.4068 17.396 46.7034C19.3087 47.9949 21.238 49.213 23.184 50.3577ZM30.0995 5.61999L30.1022 5.62175C32.2065 6.96382 34.3895 7.96886 36.6509 8.63398C38.7588 9.25396 40.9588 9.6412 43.25 9.7967V18.7461C43.2178 20.7552 42.9466 22.6982 42.4374 24.5762C41.9272 26.4575 41.2021 28.2339 40.2623 29.9064C39.3173 31.5883 38.2116 33.191 36.9447 34.7145C35.6748 36.2415 34.2923 37.6723 32.797 39.0068C31.2976 40.345 29.7339 41.5862 28.106 42.7306C26.5549 43.821 24.9973 44.8233 23.4332 45.7376C21.8435 44.8388 20.2821 43.8376 18.7492 42.7339C17.1359 41.5723 15.5789 40.3219 14.078 38.9824C12.5827 37.6479 11.2002 36.2171 9.93034 34.6901C8.66341 33.1666 7.55771 31.5639 6.61266 29.882C5.67193 28.2078 4.93836 26.4379 4.41189 24.5713C3.88778 22.7131 3.625 20.7732 3.625 18.75V9.79691C5.93126 9.64155 8.13944 9.25429 10.2485 8.63398C12.5103 7.96876 14.6857 6.96344 16.7743 5.62079L16.777 5.619C17.8668 4.90829 18.9301 4.40198 19.9672 4.09239C21.0038 3.78296 22.1582 3.62525 23.4345 3.625C24.7293 3.64103 25.8938 3.80685 26.9322 4.1168C27.9707 4.42681 29.0264 4.92563 30.0995 5.61999Z" fill="#F81010" stroke="#F81010"/>
</g>
<defs>
<clipPath id="clip0_370_154">
<rect width="50" height="50" fill="white"/>
</clipPath>
</defs>
</svg>
