<svg width="25" height="23" viewBox="0 0 25 23" fill="none" xmlns="http://www.w3.org/2000/svg">
<path fill-rule="evenodd" clip-rule="evenodd" d="M3.39222 2.46429C3.1673 2.46429 2.9516 2.55083 2.79256 2.70488C2.63352 2.85892 2.54417 3.06786 2.54417 3.28571V19.7143C2.54417 19.9321 2.63352 20.1411 2.79256 20.2951C2.9516 20.4492 3.1673 20.5357 3.39222 20.5357H12.2968C12.6342 20.5357 12.9577 20.6655 13.1963 20.8966C13.4349 21.1277 13.5689 21.4411 13.5689 21.7679C13.5689 22.0946 13.4349 22.408 13.1963 22.6391C12.9577 22.8702 12.6342 23 12.2968 23H3.39222C2.49255 23 1.62972 22.6538 0.993559 22.0376C0.357394 21.4214 0 20.5857 0 19.7143V3.28571C0 2.41429 0.357394 1.57855 0.993559 0.962363C1.62972 0.346173 2.49255 0 3.39222 0H20.3533C21.253 0 22.1158 0.346173 22.752 0.962363C23.3882 1.57855 23.7456 2.41429 23.7456 3.28571V13.5536C23.7456 13.8804 23.6115 14.1938 23.373 14.4248C23.1344 14.6559 22.8109 14.7857 22.4735 14.7857C22.1361 14.7857 21.8125 14.6559 21.574 14.4248C21.3354 14.1938 21.2014 13.8804 21.2014 13.5536V3.28571C21.2014 3.06786 21.112 2.85892 20.953 2.70488C20.794 2.55083 20.5783 2.46429 20.3533 2.46429H3.39222ZM24.2205 16.79C24.4587 17.021 24.5925 17.3342 24.5925 17.6607C24.5925 17.9872 24.4587 18.3004 24.2205 18.5314L19.9802 22.6386C19.7417 22.8693 19.4184 22.9989 19.0813 22.9989C18.7442 22.9989 18.4208 22.8693 18.1823 22.6386L16.4862 20.9957C16.3612 20.8829 16.261 20.7469 16.1915 20.5957C16.1219 20.4446 16.0845 20.2814 16.0815 20.116C16.0785 19.9506 16.1099 19.7862 16.1739 19.6328C16.2379 19.4794 16.3331 19.34 16.4539 19.223C16.5747 19.106 16.7186 19.0138 16.877 18.9518C17.0354 18.8898 17.2051 18.8594 17.3759 18.8623C17.5467 18.8652 17.7151 18.9014 17.8711 18.9688C18.0272 19.0361 18.1676 19.1332 18.2841 19.2543L19.0813 20.0264L22.4226 16.79C22.6611 16.5593 22.9844 16.4297 23.3215 16.4297C23.6586 16.4297 23.982 16.5593 24.2205 16.79ZM6.36042 4.92857C6.02304 4.92857 5.69948 5.05839 5.46092 5.28946C5.22236 5.52053 5.08834 5.83393 5.08834 6.16071C5.08834 6.4875 5.22236 6.8009 5.46092 7.03197C5.69948 7.26304 6.02304 7.39286 6.36042 7.39286H17.3851C17.7225 7.39286 18.0461 7.26304 18.2846 7.03197C18.5232 6.8009 18.6572 6.4875 18.6572 6.16071C18.6572 5.83393 18.5232 5.52053 18.2846 5.28946C18.0461 5.05839 17.7225 4.92857 17.3851 4.92857H6.36042ZM5.08834 11.5C5.08834 11.1732 5.22236 10.8598 5.46092 10.6287C5.69948 10.3977 6.02304 10.2679 6.36042 10.2679H17.3851C17.7225 10.2679 18.0461 10.3977 18.2846 10.6287C18.5232 10.8598 18.6572 11.1732 18.6572 11.5C18.6572 11.8268 18.5232 12.1402 18.2846 12.3713C18.0461 12.6023 17.7225 12.7321 17.3851 12.7321H6.36042C6.02304 12.7321 5.69948 12.6023 5.46092 12.3713C5.22236 12.1402 5.08834 11.8268 5.08834 11.5ZM6.36042 15.6071C6.02304 15.6071 5.69948 15.737 5.46092 15.968C5.22236 16.1991 5.08834 16.5125 5.08834 16.8393C5.08834 17.1661 5.22236 17.4795 5.46092 17.7105C5.69948 17.9416 6.02304 18.0714 6.36042 18.0714H12.2968C12.6342 18.0714 12.9577 17.9416 13.1963 17.7105C13.4349 17.4795 13.5689 17.1661 13.5689 16.8393C13.5689 16.5125 13.4349 16.1991 13.1963 15.968C12.9577 15.737 12.6342 15.6071 12.2968 15.6071H6.36042Z" fill="#024932"/>
</svg>
