<svg width="316" height="101" viewBox="0 0 316 101" fill="none" xmlns="http://www.w3.org/2000/svg">
<path d="M45.8742 2.04998C48.1859 2.04998 49.3418 3.29659 49.3418 5.79359C49.3418 6.58032 49.218 7.55708 48.9718 8.72197L47.446 15.4776C46.984 17.5242 46.414 18.9703 45.736 19.8103C45.0681 20.6369 44.1023 21.0512 42.8384 21.0512C41.7905 21.0512 40.9787 20.692 40.4044 19.9737C39.8387 19.2402 39.3046 18.1019 38.8008 16.555L37.7371 13.1383C37.3988 12.0798 37.039 11.3615 36.659 10.9814C36.279 10.5881 35.6888 10.3904 34.887 10.3904H33.439L25.4242 47.6422C25.3019 48.3605 25.24 48.999 25.24 49.5539C25.24 50.219 25.312 50.7739 25.4559 51.2224C25.5998 51.6556 25.8201 52.125 26.118 52.6267C26.498 53.4134 26.688 54.0576 26.688 54.5593C26.688 54.6676 26.6477 54.9451 26.5657 55.3936C26.3498 56.1119 25.9338 56.6401 25.3163 56.9803C24.7103 57.3053 23.8423 57.4687 22.7123 57.4687H7.87183C6.98946 57.4687 6.30574 57.2787 5.82209 56.8986C5.33988 56.5052 5.09805 55.9427 5.09805 55.2092C5.09805 54.8843 5.15995 54.5517 5.28374 54.2135C5.45791 53.7118 5.658 53.3374 5.88399 53.0942C6.12005 52.8357 6.46983 52.5184 6.93189 52.1383C7.55948 51.6366 8.08343 51.0798 8.50374 50.4698C8.9255 49.8598 9.28535 48.9173 9.58332 47.6422L17.5347 10.3904H16.0867C15.151 10.3904 14.391 10.5881 13.8052 10.9814C13.2193 11.3615 12.5874 12.0798 11.9094 13.1383L9.82946 16.555C8.8636 18.0468 7.92941 19.1737 7.02545 19.9319C6.12005 20.6787 5.1398 21.0512 4.08182 21.0512C3.11596 21.0512 2.36026 20.7186 1.81616 20.0554C1.27205 19.3903 1 18.4743 1 17.3076C1 16.7527 1.06046 16.1408 1.18425 15.4776L2.818 7.88773C3.15626 6.32948 3.53627 5.14939 3.95803 4.34936C4.37978 3.53413 4.98002 2.95073 5.76163 2.59917C6.54181 2.23241 7.64584 2.04998 9.07376 2.04998H45.8742ZM73.9632 0.809082C79.2646 0.809082 83.4044 2.46235 86.384 5.77269C89.3737 9.06782 90.8679 13.83 90.8679 20.0554C90.8679 22.9971 90.5339 26.1649 89.8674 29.5551C88.6036 35.7672 86.646 41.0424 83.996 45.3827C81.3446 49.7097 78.185 52.9859 74.5174 55.2092C70.8612 57.4345 66.8841 58.5462 62.5903 58.5462C57.3306 58.5462 53.2052 56.8986 50.2155 53.6035C47.2359 50.2931 45.7461 45.5252 45.7461 39.2998C45.7461 36.4665 46.1016 33.2169 46.8098 29.5551C48.0333 23.3848 49.9593 18.1494 52.5891 13.849C55.219 9.5372 58.3526 6.28767 61.99 4.10422C65.6361 1.90746 69.6276 0.809082 73.9632 0.809082ZM72.8232 8.96711C71.5594 8.96711 70.4236 9.63792 69.4175 10.9814C68.4099 12.3098 67.4081 14.4875 66.412 17.5109C65.426 20.5362 64.3622 24.7397 63.2222 30.1251C61.5481 37.9107 60.7104 43.2753 60.7104 46.217C60.7104 47.9405 60.9421 49.1947 61.4042 49.9815C61.8662 50.7549 62.6004 51.1407 63.608 51.1407C64.8718 51.1407 66.006 50.4622 67.0136 49.1073C68.0198 47.7372 69.0058 45.5537 69.9717 42.5551C70.9476 39.5583 72.0272 35.4156 73.2075 30.1251C74.8413 22.4612 75.6589 17.0776 75.6589 13.9706C75.6589 12.1938 75.4271 10.9206 74.965 10.1472C74.503 9.36047 73.789 8.96711 72.8232 8.96711ZM128.057 13.2998C128.849 9.46119 129.969 6.57272 131.417 4.6325C132.876 2.69419 134.89 1.72313 137.458 1.72313C139.482 1.72313 141.1 2.57257 142.312 4.26764C143.535 5.96272 144.145 8.05876 144.145 10.5539C144.145 11.3805 144.043 12.3516 143.837 13.4632C143.375 15.9051 142.553 17.6667 141.372 18.7518C140.19 19.8369 138.906 20.3804 137.52 20.3804C136.8 20.3804 136.158 20.312 135.592 20.177C135.028 20.0402 134.494 19.8578 133.99 19.6278L130.261 37.7131C128.915 44.3319 126.665 49.3772 123.511 52.849C120.357 56.3228 116.062 58.0578 110.628 58.0578C105.665 58.0578 101.803 56.8112 99.0395 54.3142C96.2859 51.8058 94.9098 47.9139 94.9098 42.6368C94.9098 40.0733 95.248 37.2665 95.926 34.2146L100.719 11.7948C100.883 11.0765 100.965 10.3847 100.965 9.71963C100.965 9.05452 100.893 8.51293 100.75 8.09107C100.606 7.6711 100.406 7.18272 100.149 6.62783C99.7693 5.90761 99.5793 5.32422 99.5793 4.87764C99.5793 4.66101 99.6253 4.38166 99.7175 4.04341C99.8816 3.32509 100.257 2.81581 100.843 2.51746C101.438 2.20581 102.301 2.04998 103.431 2.04998H118.272C120.08 2.04998 120.984 2.7759 120.984 4.22584C120.984 4.55269 120.963 4.83014 120.922 5.06007C120.799 5.54845 120.619 5.94942 120.383 6.26107C120.146 6.55942 119.797 6.90527 119.335 7.29864C118.668 7.80032 118.122 8.35711 117.702 8.96711C117.28 9.57711 116.92 10.5197 116.622 11.7948L111.136 37.3064C110.756 39.1915 110.566 40.7992 110.566 42.1275C110.566 45.8578 112.082 47.7239 115.112 47.7239C116.962 47.7239 118.508 46.9296 119.751 45.3428C120.994 43.7561 122.037 41.05 122.879 37.2247L128.057 13.2998ZM187.441 18.976C186.773 22.1914 185.51 24.6998 183.651 26.5032C181.801 28.3084 179.469 29.4334 176.654 29.88C178.677 30.1118 180.193 30.891 181.201 32.2212C182.207 33.5495 182.711 35.2997 182.711 37.4698C182.711 38.2965 182.607 39.3207 182.403 40.5407L181.709 44.6302C181.617 45.187 181.569 45.5728 181.569 45.7913C181.569 46.5229 181.699 47.0721 181.955 47.4389C182.213 47.7904 182.571 47.9671 183.034 47.9671C183.917 47.9671 184.555 48.1363 184.945 48.4764C185.345 48.8014 185.484 49.4114 185.361 50.3064C185.196 51.5815 184.693 52.83 183.851 54.05C183.009 55.2719 181.817 56.2886 180.275 57.1019C178.745 57.902 176.885 58.3029 174.697 58.3029C171.924 58.3029 169.714 57.482 168.07 55.8401C166.426 54.2002 165.604 51.8533 165.604 48.8014C165.604 47.6346 165.733 46.388 165.99 45.0578L166.992 39.7065C167.166 38.9882 167.254 38.2433 167.254 37.4698C167.254 36.1947 166.924 35.2788 166.267 34.7239C165.62 34.1671 164.577 33.8897 163.139 33.8897H160.751L157.837 47.7239C157.755 48.0489 157.715 48.4631 157.715 48.9648C157.715 49.7363 157.859 50.4014 158.145 50.9582C158.443 51.5131 158.849 52.0965 159.363 52.7084C159.733 53.1018 160.021 53.4799 160.227 53.8467C160.443 54.2002 160.551 54.5726 160.551 54.966C160.551 55.9161 160.211 56.5869 159.533 56.9803C158.865 57.3604 157.879 57.5504 156.573 57.5504H140.733C139.643 57.5504 138.827 57.2844 138.281 56.7561C137.727 56.2278 137.537 55.4943 137.711 54.5593C137.793 54.0576 137.953 53.6567 138.189 53.3583C138.415 53.0467 138.759 52.6932 139.223 52.2998C139.941 51.745 140.511 51.1616 140.933 50.5516C141.354 49.9416 141.687 48.999 141.934 47.7239L149.64 11.7948C149.804 11.0765 149.886 10.3847 149.886 9.71963C149.886 9.10963 149.814 8.59465 149.67 8.17278C149.526 7.75281 149.326 7.26443 149.07 6.70764C148.69 5.98932 148.5 5.40593 148.5 4.95936C148.5 4.79593 148.54 4.48998 148.622 4.04341C148.796 3.32509 149.166 2.81581 149.732 2.51746C150.298 2.20581 151.17 2.04998 152.352 2.04998H173.495C176.402 2.04998 178.939 2.63338 181.107 3.79827C183.275 4.96506 184.935 6.56512 186.085 8.60035C187.246 10.6223 187.826 12.914 187.826 15.4776C187.826 16.6425 187.698 17.8092 187.441 18.976ZM171.292 18.1418C171.496 16.8534 171.6 15.8766 171.6 15.2134C171.6 12.2698 170.382 10.7971 167.946 10.7971H165.296L162.507 25.5473H165.158C166.802 25.5473 168.096 25.019 169.042 23.9605C169.996 22.9021 170.746 20.9638 171.292 18.1418Z" fill="#FFA236" fill-opacity="0.75" stroke="#FFA236"/>
<path d="M215.899 54.1818C215.157 44.7179 206.906 39.2427 197.221 40.1913C180.54 41.8256 172.99 54.4495 174.681 70.8604C174.774 71.7589 175.612 72.3579 176.458 72.276C177.227 72.2002 178.095 71.5853 177.987 70.5365C176.864 55.1292 182.787 44.7851 197.468 43.3463C205.309 42.5786 212.121 46.9072 212.656 54.348C213.127 58.9199 210.57 64.241 206.059 67.181C203.429 65.774 199.255 65.1982 196.411 65.4769C193.951 65.7177 192.545 67.1418 192.792 69.5402C193.124 72.7625 195.953 73.0913 199.411 72.7527C201.257 72.5718 204.423 71.6562 206.045 70.8152C209.613 73.04 211.852 77.4382 212.301 81.7839C213.111 89.6526 208.694 96.5189 200.161 97.355C195.011 97.8587 189.892 96.393 189.413 91.7466C189.142 89.1233 191.048 86.5147 193.661 86.2592C195.429 86.0856 197.351 87.4119 198.443 89.7259C198.744 90.3787 199.398 90.6929 200.09 90.6244C201.32 90.5046 201.896 89.3128 201.41 88.3764C199.663 84.9903 196.796 82.7728 193.26 83.1188C189.186 83.5185 185.697 87.3422 186.184 92.0632C186.817 98.207 192.799 101.255 200.486 100.502C210.479 99.5236 216.617 91.2772 215.621 81.6103C215.196 77.4883 213.533 73.4128 210.588 70.446L209.042 69.0085C213.561 65.3864 216.456 59.5775 215.899 54.1818ZM194.974 52.2956C195.635 50.4143 197.509 48.2629 199.246 47.7898C199.845 47.5795 200.484 46.9879 200.367 45.8633C200.129 45.054 199.383 44.5968 198.614 44.6726C196.155 44.9135 193.212 48.0025 191.899 51.083C190.171 55.4152 188.975 61.1337 187.801 67.077C185.394 79.1215 182.695 94.3723 171.78 95.4419C167.475 95.8637 163.615 93.8198 163.136 89.1734C162.681 84.7519 165.977 79.8122 170.127 79.4051C170.588 79.3599 170.972 79.322 171.372 79.4344C172.479 79.6288 173.394 78.7071 173.286 77.6583C173.215 76.9835 172.7 76.5043 171.978 76.272C171.178 76.0471 170.487 76.1156 169.718 76.1901C163.953 76.7549 159.252 83.12 159.924 89.6391C160.549 95.7097 165.877 99.1984 172.181 98.5811C185.018 97.3245 188.04 82.1922 190.969 67.6748C192.165 61.9564 193.3 56.3956 194.974 52.2956ZM199.472 69.5671C198.319 69.6796 196.09 69.8984 196.028 69.2994C195.974 68.775 196.427 68.654 197.043 68.5941C197.734 68.5268 201.024 68.8092 201.824 69.0341C201.07 69.2591 200.318 69.484 199.472 69.5671Z" fill="#117454"/>
<path d="M255.487 74.4499C255.841 73.3559 254.879 72.3144 253.726 72.4268C253.111 72.488 252.535 72.9231 252.366 73.5441C250.317 80.0278 247.919 83.1389 244.691 83.4555C242.923 83.6278 241.562 83.2318 240.609 82.266C243.542 76.0745 245.245 68.4894 244.758 63.7685C244.296 59.2724 241.334 56.1565 236.245 56.5037C232.402 56.8802 228.906 59.8714 226.218 65.4334C224.098 69.7277 220.85 77.3886 221.746 86.0812C222.194 90.4281 224.218 93.4841 229.213 92.9952C232.904 92.6333 236.507 89.1764 238.965 85.1509C240.795 86.3342 242.864 86.8134 245.015 86.602C249.627 86.1509 252.885 82.3504 255.487 74.4499ZM237.43 74.0233C236.662 74.0991 236.016 74.6162 235.939 75.3802C235.595 77.3067 235.78 80.6195 236.827 82.4849C234.653 86.2548 231.734 89.5688 228.89 89.8475C226.43 90.0883 225.314 88.3048 225.036 85.6081C224.24 77.8886 227.566 70.2216 229.232 66.8037C231.075 62.8382 233.572 59.9448 236.492 59.6587C239.107 59.402 241.198 60.8628 241.522 64.0093C241.878 67.4565 240.95 72.7703 239.045 77.6502C239.069 77.1185 239.007 76.5183 239.176 75.896C239.375 74.8167 238.506 73.9182 237.43 74.0233Z" fill="#117454"/>
<path d="M285.541 71.5061C285.895 70.412 284.933 69.3705 283.78 69.483C283.165 69.5441 282.589 69.9793 282.42 70.6003C280.371 77.084 277.973 80.195 274.745 80.5116C272.976 80.684 271.616 80.2879 270.663 79.3222C273.596 73.1307 275.299 65.5456 274.812 60.8246C274.35 56.3286 271.388 53.2127 266.299 53.5598C262.456 53.9363 258.96 56.9276 256.272 62.4896C254.152 66.7839 250.903 74.4448 251.8 83.1374C252.248 87.4843 254.272 90.5403 259.267 90.0513C262.958 89.6895 266.561 86.2325 269.019 82.2071C270.849 83.3904 272.918 83.8696 275.069 83.6581C279.681 83.207 282.939 79.4065 285.541 71.5061ZM267.484 71.0795C266.716 71.1553 266.07 71.6723 265.993 72.4363C265.648 74.3629 265.834 77.6756 266.881 79.541C264.707 83.3109 261.788 86.6249 258.944 86.9036C256.483 87.1444 255.367 85.3609 255.09 82.6643C254.294 74.9447 257.62 67.2778 259.286 63.8599C261.129 59.8944 263.626 57.0009 266.546 56.7149C269.161 56.4582 271.252 57.9189 271.576 61.0654C271.932 64.5127 271.004 69.8265 269.099 74.7064C269.123 74.1746 269.06 73.5744 269.23 72.9522C269.429 71.8728 268.56 70.9743 267.484 71.0795Z" fill="#117454"/>
<path d="M281.596 86.7288C285.347 72.6613 288.639 59.3944 293.434 40.381C293.719 39.3688 292.833 38.32 291.604 38.4398C290.989 38.5009 290.413 38.9361 290.244 39.5571C289.806 41.3418 287.666 49.9525 278.421 86.0553C278.197 86.9098 278.752 87.7642 279.628 87.9806C280.497 88.1236 281.365 87.5087 281.596 86.7288ZM314.849 66.592C314.61 66.5394 314.372 66.4869 314.141 66.5101C313.526 66.57 313.027 66.9978 312.781 67.6274C310.524 74.358 307.6 82.1374 303.064 82.5824C301.45 82.7401 300.457 81.3991 300.318 80.0508C300.141 78.3272 300.392 72.4743 300.214 70.7507C299.805 67.5357 298.544 65.086 294.868 64.8403L306.531 52.192C306.808 51.8631 307 51.4658 306.954 51.016C306.892 50.4158 306.253 49.4953 305.101 49.6078C304.716 49.6457 304.486 49.6677 304.064 50.0882C294.782 60.2318 288.335 66.9942 287.436 68.0662C286.399 69.3033 286.954 70.9145 288.645 70.7482C290.105 70.6052 291.026 68.2447 293.256 68.0259C295.869 67.7704 296.708 69.1261 296.985 71.0673C297.202 72.4083 297.133 74.0047 297.057 75.5254C297.004 77.2722 296.944 78.9433 297.113 80.5911C297.406 83.4393 299.853 86.0761 303.389 85.7289C309.769 85.1042 313.047 76.9874 315.911 68.6078C315.963 68.3755 316.017 68.1432 315.995 67.9183C315.933 67.3181 315.487 66.757 314.849 66.592Z" fill="#117454"/>
</svg>
