<svg width="49" height="38" viewBox="0 0 49 38" fill="none" xmlns="http://www.w3.org/2000/svg">
<path d="M20.8254 7.6001H28.1754C28.1754 6.84423 27.7882 6.11932 27.099 5.58484C26.4098 5.05036 25.4751 4.7501 24.5004 4.7501C23.5257 4.7501 22.591 5.05036 21.9018 5.58484C21.2126 6.11932 20.8254 6.84423 20.8254 7.6001ZM18.3754 7.6001C18.3754 6.34032 19.0207 5.13214 20.1694 4.24134C21.318 3.35054 22.8759 2.8501 24.5004 2.8501C26.1248 2.8501 27.6828 3.35054 28.8314 4.24134C29.9801 5.13214 30.6254 6.34032 30.6254 7.6001H42.8754C43.2003 7.6001 43.5119 7.70019 43.7416 7.87835C43.9713 8.05651 44.1004 8.29814 44.1004 8.5501C44.1004 8.80205 43.9713 9.04369 43.7416 9.22185C43.5119 9.40001 43.2003 9.5001 42.8754 9.5001H40.2931L37.3678 29.1537C37.161 30.543 36.3029 31.8248 34.9567 32.7553C33.6104 33.6858 31.8701 34.2 30.0668 34.2001H18.934C17.1307 34.2 15.3903 33.6858 14.0441 32.7553C12.6979 31.8248 11.8398 30.543 11.633 29.1537L8.70769 9.5001H6.12539C5.8005 9.5001 5.48892 9.40001 5.25919 9.22185C5.02945 9.04369 4.90039 8.80205 4.90039 8.5501C4.90039 8.29814 5.02945 8.05651 5.25919 7.87835C5.48892 7.70019 5.8005 7.6001 6.12539 7.6001H18.3754ZM22.0504 15.2001C22.0504 14.9481 21.9213 14.7065 21.6916 14.5283C21.4619 14.3502 21.1503 14.2501 20.8254 14.2501C20.5005 14.2501 20.1889 14.3502 19.9592 14.5283C19.7295 14.7065 19.6004 14.9481 19.6004 15.2001V26.6001C19.6004 26.8521 19.7295 27.0937 19.9592 27.2718C20.1889 27.45 20.5005 27.5501 20.8254 27.5501C21.1503 27.5501 21.4619 27.45 21.6916 27.2718C21.9213 27.0937 22.0504 26.8521 22.0504 26.6001V15.2001ZM28.1754 14.2501C27.8505 14.2501 27.5389 14.3502 27.3092 14.5283C27.0795 14.7065 26.9504 14.9481 26.9504 15.2001V26.6001C26.9504 26.8521 27.0795 27.0937 27.3092 27.2718C27.5389 27.45 27.8505 27.5501 28.1754 27.5501C28.5003 27.5501 28.8119 27.45 29.0416 27.2718C29.2713 27.0937 29.4004 26.8521 29.4004 26.6001V15.2001C29.4004 14.9481 29.2713 14.7065 29.0416 14.5283C28.8119 14.3502 28.5003 14.2501 28.1754 14.2501Z" fill="#F81010"/>
</svg>
