<svg width="83" height="75" viewBox="0 0 83 75" fill="none" xmlns="http://www.w3.org/2000/svg">
<path d="M41.509 72C34.3836 72.003 27.3972 70.2331 21.3277 66.8876C15.2582 63.542 10.3439 58.752 7.13213 53.0511C3.92033 47.3501 2.53708 40.962 3.13643 34.5981C3.73577 28.2341 6.29419 22.1442 10.5268 17.0065C14.7593 11.8688 20.4999 7.88499 27.1092 5.49872C33.7185 3.11244 40.9371 2.41737 47.9611 3.49091C54.9851 4.56446 61.5387 7.36447 66.8923 11.5791C72.2458 15.7938 76.1889 21.2577 78.2827 27.3623M80 37.5V40.1538" stroke="#E4B200" stroke-width="5" stroke-linecap="round" stroke-linejoin="round"/>
<path d="M77.6856 49.3359C74.6338 56.8084 68.798 63.1077 61.1641 67.1698" stroke="#E4B200" stroke-width="5" stroke-linecap="round" stroke-linejoin="round"/>
<path d="M56.4892 69.3467L53.7061 70.3021" stroke="#E4B200" stroke-width="5" stroke-linecap="round" stroke-linejoin="round"/>
</svg>
