<svg width="28" height="34" viewBox="0 0 28 34" fill="none" xmlns="http://www.w3.org/2000/svg">
<path d="M13.1851 5.01827L12.8972 4.61411L13.1851 5.01827C13.4413 4.83579 13.723 4.74597 14.0017 4.74597C14.2805 4.74597 14.5622 4.83579 14.8184 5.01827C15.0758 5.20163 15.2995 5.47342 15.4568 5.81475C15.4568 5.81481 15.4568 5.81486 15.4568 5.81491L23.7693 23.8815L23.7693 23.8816C23.9234 24.2163 24.0049 24.5994 24.0015 24.992C23.9982 25.3846 23.9102 25.7652 23.7508 26.0952C23.5913 26.4252 23.3694 26.6869 23.1159 26.8632C22.8637 27.0386 22.5876 27.125 22.3142 27.125H5.68275C5.40948 27.1247 5.13352 27.0382 4.88145 26.8626C4.62815 26.6862 4.40634 26.4245 4.24708 26.0944C4.08782 25.7644 3.99995 25.3839 3.99668 24.9915C3.9934 24.5991 4.07489 24.2161 4.22891 23.8816L4.22892 23.8816L12.5466 5.81491C12.5466 5.8149 12.5467 5.81488 12.5467 5.81486C12.7039 5.47348 12.9276 5.20165 13.1851 5.01827ZM15.314 23.2261C15.6408 22.8293 15.8125 22.3085 15.8125 21.7813C15.8125 21.254 15.6408 20.7333 15.314 20.3365C14.985 19.9369 14.5155 19.6875 14 19.6875C13.4845 19.6875 13.015 19.9369 12.6859 20.3365C12.3592 20.7333 12.1875 21.254 12.1875 21.7813C12.1875 22.3085 12.3592 22.8293 12.6859 23.2261C13.015 23.6256 13.4845 23.875 14 23.875C14.5155 23.875 14.985 23.6256 15.314 23.2261ZM12.625 11.6875V17C12.625 17.3864 12.7506 17.772 12.9953 18.0692C13.2423 18.3691 13.6005 18.5625 14 18.5625C14.3995 18.5625 14.7577 18.3691 15.0047 18.0692C15.2494 17.772 15.375 17.3864 15.375 17V11.6875C15.375 11.3011 15.2494 10.9155 15.0047 10.6184C14.7577 10.3184 14.3995 10.125 14 10.125C13.6005 10.125 13.2423 10.3184 12.9953 10.6184C12.7506 10.9155 12.625 11.3011 12.625 11.6875Z" fill="#E4B200" stroke="#063E3B"/>
</svg>
